<svg width="37" height="37" viewBox="0 0 37 37" fill="none" xmlns="http://www.w3.org/2000/svg">
<path d="M18.5 18.5C16.8042 18.5 15.3525 17.8962 14.1448 16.6886C12.9372 15.4809 12.3334 14.0292 12.3334 12.3334C12.3334 10.6375 12.9372 9.18578 14.1448 7.97815C15.3525 6.77051 16.8042 6.16669 18.5 6.16669C20.1959 6.16669 21.6476 6.77051 22.8552 7.97815C24.0629 9.18578 24.6667 10.6375 24.6667 12.3334C24.6667 14.0292 24.0629 15.4809 22.8552 16.6886C21.6476 17.8962 20.1959 18.5 18.5 18.5ZM6.16669 30.8334V26.5167C6.16669 25.6431 6.39151 24.8401 6.84117 24.1078C7.29082 23.3755 7.88821 22.8167 8.63335 22.4313C10.2264 21.6347 11.8452 21.0373 13.4896 20.6391C15.134 20.2408 16.8042 20.0417 18.5 20.0417C20.1959 20.0417 21.866 20.2408 23.5104 20.6391C25.1549 21.0373 26.7736 21.6347 28.3667 22.4313C29.1118 22.8167 29.7092 23.3755 30.1589 24.1078C30.6085 24.8401 30.8334 25.6431 30.8334 26.5167V30.8334H6.16669ZM9.25002 27.75H27.75V26.5167C27.75 26.234 27.6794 25.9771 27.538 25.7459C27.3967 25.5146 27.2104 25.3347 26.9792 25.2063C25.5917 24.5125 24.1913 23.9922 22.7781 23.6453C21.365 23.2985 19.9389 23.125 18.5 23.125C17.0611 23.125 15.6351 23.2985 14.2219 23.6453C12.8087 23.9922 11.4084 24.5125 10.0209 25.2063C9.7896 25.3347 9.60332 25.5146 9.462 25.7459C9.32068 25.9771 9.25002 26.234 9.25002 26.5167V27.75ZM18.5 15.4167C19.3479 15.4167 20.0738 15.1148 20.6776 14.511C21.2814 13.9071 21.5834 13.1813 21.5834 12.3334C21.5834 11.4854 21.2814 10.7596 20.6776 10.1557C20.0738 9.55193 19.3479 9.25002 18.5 9.25002C17.6521 9.25002 16.9262 9.55193 16.3224 10.1557C15.7186 10.7596 15.4167 11.4854 15.4167 12.3334C15.4167 13.1813 15.7186 13.9071 16.3224 14.511C16.9262 15.1148 17.6521 15.4167 18.5 15.4167Z" fill="white"/>
</svg>
